<svg width="613" height="116" viewBox="0 0 613 116" fill="none" xmlns="http://www.w3.org/2000/svg">
<path d="M147.761 90.152C143.153 90.152 138.961 89.352 135.185 87.752C131.473 86.088 128.273 83.816 125.585 80.936C122.961 78.056 120.913 74.76 119.441 71.048C118.033 67.272 117.329 63.272 117.329 59.048C117.329 53.864 118.321 49.32 120.305 45.416C122.353 41.512 125.041 38.28 128.369 35.72C131.697 33.096 135.345 31.144 139.313 29.864C143.281 28.584 147.217 27.944 151.121 27.944C155.857 27.944 160.081 28.808 163.793 30.536C167.569 32.2 170.769 34.472 173.393 37.352C176.017 40.232 178.001 43.496 179.345 47.144C180.753 50.792 181.457 54.536 181.457 58.376C181.457 62.856 180.561 67.016 178.769 70.856C176.977 74.696 174.513 78.056 171.377 80.936C168.305 83.816 164.721 86.088 160.625 87.752C156.593 89.352 152.305 90.152 147.761 90.152ZM150.929 87.752C154.513 87.752 157.713 86.728 160.529 84.68C163.345 82.632 165.553 79.624 167.153 75.656C168.817 71.688 169.649 66.856 169.649 61.16C169.649 55.272 168.753 50.024 166.961 45.416C165.169 40.808 162.609 37.192 159.281 34.568C155.953 31.88 151.953 30.536 147.281 30.536C141.457 30.536 136.977 32.744 133.841 37.16C130.705 41.576 129.137 47.688 129.137 55.496C129.137 60.168 129.681 64.488 130.769 68.456C131.857 72.36 133.361 75.784 135.281 78.728C137.265 81.608 139.569 83.848 142.193 85.448C144.881 86.984 147.793 87.752 150.929 87.752ZM188.621 115.4C188.429 115.4 188.333 115.208 188.333 114.824C188.333 114.44 188.429 114.248 188.621 114.248C190.861 114.248 192.301 113.832 192.941 113C193.645 112.168 193.997 110.376 193.997 107.624V63.176C193.997 61.192 193.773 59.752 193.325 58.856C192.877 57.896 192.077 57.416 190.925 57.416C190.413 57.416 189.773 57.544 189.005 57.8C188.237 57.992 187.405 58.312 186.509 58.76C186.253 58.888 186.029 58.76 185.837 58.376C185.645 57.992 185.613 57.768 185.741 57.704L199.373 51.08C199.501 51.016 199.661 50.984 199.853 50.984C200.557 50.984 201.229 51.752 201.869 53.288C202.573 54.824 202.925 57.032 202.925 59.912V107.624C202.925 109.416 203.117 110.792 203.501 111.752C203.949 112.712 204.781 113.352 205.997 113.672C207.213 114.056 209.037 114.248 211.469 114.248C211.661 114.248 211.757 114.44 211.757 114.824C211.757 115.208 211.661 115.4 211.469 115.4C209.677 115.4 207.661 115.368 205.421 115.304C203.181 115.24 200.813 115.208 198.317 115.208C196.525 115.208 194.765 115.24 193.037 115.304C191.373 115.368 189.901 115.4 188.621 115.4ZM211.181 90.248C208.685 90.248 206.541 90.056 204.749 89.672C203.021 89.288 200.941 88.68 198.509 87.848L201.869 81.8C203.277 83.528 204.781 84.968 206.381 86.12C208.045 87.272 210.253 87.848 213.005 87.848C216.013 87.848 218.381 86.536 220.109 83.912C221.837 81.288 222.701 77.096 222.701 71.336C222.701 66.216 221.517 62.408 219.149 59.912C216.781 57.352 213.997 56.072 210.797 56.072C208.429 56.072 206.381 56.68 204.653 57.896C202.925 59.112 201.229 60.648 199.565 62.504L198.605 61.352C201.869 57.576 204.973 54.856 207.917 53.192C210.925 51.528 213.997 50.696 217.133 50.696C219.821 50.696 222.317 51.4 224.621 52.808C226.925 54.152 228.781 56.136 230.189 58.76C231.661 61.384 232.397 64.584 232.397 68.36C232.397 72.456 231.725 75.912 230.381 78.728C229.101 81.544 227.405 83.816 225.293 85.544C223.181 87.208 220.877 88.392 218.381 89.096C215.949 89.864 213.549 90.248 211.181 90.248ZM257.904 90.152C253.744 90.152 250.192 89.288 247.248 87.56C244.368 85.832 242.16 83.56 240.624 80.744C239.152 77.864 238.416 74.824 238.416 71.624C238.416 67.848 239.376 64.424 241.296 61.352C243.216 58.216 245.808 55.72 249.072 53.864C252.4 52.008 256.144 51.08 260.304 51.08C264.272 51.08 267.312 51.944 269.424 53.672C271.536 55.336 272.592 57.64 272.592 60.584C272.592 61.288 272.528 61.928 272.4 62.504C272.272 63.08 271.984 63.368 271.536 63.368H262.32C262.448 60.36 262.096 57.896 261.264 55.976C260.432 53.992 258.928 53 256.752 53C254.192 53 252.112 54.344 250.512 57.032C248.912 59.656 248.112 63.176 248.112 67.592C248.112 71.176 248.688 74.312 249.84 77C250.992 79.688 252.656 81.768 254.832 83.24C257.008 84.712 259.632 85.448 262.704 85.448C264.24 85.448 265.872 85.224 267.6 84.776C269.392 84.328 270.992 83.656 272.4 82.76C272.528 82.632 272.688 82.696 272.88 82.952C273.136 83.208 273.2 83.432 273.072 83.624C270.704 85.992 268.272 87.688 265.776 88.712C263.344 89.672 260.72 90.152 257.904 90.152ZM244.752 63.56L244.656 61.736L265.68 61.256V63.368L244.752 63.56ZM305.037 89C304.845 89 304.749 88.808 304.749 88.424C304.749 88.04 304.845 87.848 305.037 87.848C307.021 87.848 308.365 87.4 309.069 86.504C309.773 85.544 310.125 83.784 310.125 81.224V67.4C310.125 63.944 309.485 61.384 308.205 59.72C306.989 58.056 305.037 57.224 302.349 57.224C300.429 57.224 298.445 57.704 296.397 58.664C294.413 59.624 292.813 60.936 291.597 62.6L291.117 61.448C293.357 58.248 295.885 55.688 298.701 53.768C301.517 51.784 304.589 50.792 307.917 50.792C311.501 50.792 314.253 51.912 316.173 54.152C318.157 56.392 319.149 59.272 319.149 62.792V81.224C319.149 83.784 319.501 85.544 320.205 86.504C320.973 87.4 322.349 87.848 324.333 87.848C324.525 87.848 324.621 88.04 324.621 88.424C324.621 88.808 324.525 89 324.333 89C323.053 89 321.581 88.968 319.917 88.904C318.253 88.84 316.493 88.808 314.637 88.808C312.845 88.808 311.117 88.84 309.453 88.904C307.789 88.968 306.317 89 305.037 89ZM279.213 89C279.021 89 278.925 88.808 278.925 88.424C278.925 88.04 279.021 87.848 279.213 87.848C281.197 87.848 282.541 87.4 283.245 86.504C283.949 85.544 284.301 83.784 284.301 81.224V63.176C284.301 61.192 284.077 59.752 283.629 58.856C283.181 57.896 282.413 57.416 281.325 57.416C280.749 57.416 280.077 57.544 279.309 57.8C278.541 57.992 277.677 58.312 276.717 58.76C276.461 58.888 276.269 58.76 276.141 58.376C276.013 57.992 276.013 57.768 276.141 57.704L289.485 51.176C289.869 51.048 290.093 50.984 290.157 50.984C290.861 50.984 291.565 51.752 292.269 53.288C292.973 54.824 293.325 57.032 293.325 59.912V81.224C293.325 83.784 293.677 85.544 294.381 86.504C295.149 87.4 296.525 87.848 298.509 87.848C298.701 87.848 298.797 88.04 298.797 88.424C298.797 88.808 298.701 89 298.509 89C297.229 89 295.757 88.968 294.093 88.904C292.429 88.84 290.669 88.808 288.813 88.808C287.021 88.808 285.293 88.84 283.629 88.904C281.965 88.968 280.493 89 279.213 89Z" fill="#110A21"/>
<path d="M352.9 90.75C349.2 90.75 345.95 90.2 343.15 89.1C340.35 88 337.65 86.25 335.05 83.85C334.7 83.5 334.4 83.125 334.15 82.725C333.95 82.275 333.85 81.8 333.85 81.3C333.85 80.5 334.125 79.8 334.675 79.2C335.275 78.55 336 78.225 336.85 78.225C337.55 78.225 338.175 78.5 338.725 79.05C340.675 80.95 342.775 82.4 345.025 83.4C347.325 84.4 349.9 84.9 352.75 84.9C354.95 84.9 356.925 84.55 358.675 83.85C360.475 83.15 361.9 82.175 362.95 80.925C364 79.675 364.525 78.225 364.525 76.575C364.475 74.575 363.875 72.925 362.725 71.625C361.625 70.325 360.075 69.25 358.075 68.4C356.125 67.5 353.85 66.75 351.25 66.15C348.95 65.6 346.825 64.925 344.875 64.125C342.975 63.325 341.325 62.35 339.925 61.2C338.525 60 337.425 58.575 336.625 56.925C335.875 55.225 335.5 53.25 335.5 51C335.5 48.15 336.25 45.65 337.75 43.5C339.25 41.35 341.325 39.7 343.975 38.55C346.625 37.35 349.675 36.75 353.125 36.75C356.175 36.75 359.05 37.25 361.75 38.25C364.5 39.25 366.7 40.625 368.35 42.375C369.35 43.325 369.85 44.25 369.85 45.15C369.85 45.9 369.525 46.6 368.875 47.25C368.275 47.85 367.575 48.15 366.775 48.15C366.225 48.15 365.725 47.95 365.275 47.55C364.425 46.6 363.35 45.75 362.05 45C360.75 44.25 359.325 43.65 357.775 43.2C356.225 42.75 354.675 42.525 353.125 42.525C350.825 42.525 348.8 42.875 347.05 43.575C345.3 44.225 343.925 45.175 342.925 46.425C341.975 47.625 341.5 49.075 341.5 50.775C341.5 52.675 342.05 54.25 343.15 55.5C344.25 56.7 345.725 57.7 347.575 58.5C349.425 59.25 351.475 59.925 353.725 60.525C356.175 61.125 358.425 61.825 360.475 62.625C362.575 63.375 364.375 64.325 365.875 65.475C367.375 66.625 368.525 68.1 369.325 69.9C370.175 71.65 370.6 73.825 370.6 76.425C370.6 79.175 369.825 81.625 368.275 83.775C366.725 85.925 364.6 87.625 361.9 88.875C359.25 90.075 356.25 90.7 352.9 90.75ZM378.116 51.45H395.741C396.541 51.45 397.191 51.725 397.691 52.275C398.241 52.825 398.516 53.475 398.516 54.225C398.516 55.025 398.241 55.7 397.691 56.25C397.191 56.75 396.541 57 395.741 57H378.116C377.366 57 376.716 56.725 376.166 56.175C375.616 55.625 375.341 54.95 375.341 54.15C375.341 53.4 375.616 52.775 376.166 52.275C376.716 51.725 377.366 51.45 378.116 51.45ZM385.991 41.25C386.841 41.25 387.541 41.55 388.091 42.15C388.641 42.7 388.916 43.4 388.916 44.25V80.475C388.916 81.675 389.091 82.575 389.441 83.175C389.791 83.775 390.241 84.2 390.791 84.45C391.391 84.65 391.966 84.75 392.516 84.75C393.016 84.75 393.441 84.675 393.791 84.525C394.191 84.325 394.641 84.225 395.141 84.225C395.641 84.225 396.091 84.475 396.491 84.975C396.941 85.425 397.166 86.025 397.166 86.775C397.166 87.675 396.641 88.45 395.591 89.1C394.541 89.7 393.366 90 392.066 90C391.366 90 390.491 89.95 389.441 89.85C388.441 89.75 387.441 89.425 386.441 88.875C385.441 88.325 384.591 87.425 383.891 86.175C383.241 84.875 382.916 83.075 382.916 80.775V44.25C382.916 43.4 383.216 42.7 383.816 42.15C384.416 41.55 385.141 41.25 385.991 41.25ZM412.638 86.925C412.638 87.775 412.338 88.5 411.738 89.1C411.188 89.7 410.488 90 409.638 90C408.738 90 408.013 89.7 407.463 89.1C406.913 88.5 406.638 87.775 406.638 86.925V53.625C406.638 52.775 406.913 52.075 407.463 51.525C408.063 50.925 408.788 50.625 409.638 50.625C410.488 50.625 411.188 50.925 411.738 51.525C412.338 52.075 412.638 52.775 412.638 53.625V86.925ZM409.638 45.6C408.388 45.6 407.463 45.35 406.863 44.85C406.263 44.35 405.963 43.575 405.963 42.525V41.475C405.963 40.425 406.288 39.65 406.938 39.15C407.588 38.65 408.513 38.4 409.713 38.4C410.913 38.4 411.813 38.65 412.413 39.15C413.013 39.65 413.313 40.425 413.313 41.475V42.525C413.313 43.575 412.988 44.35 412.337 44.85C411.738 45.35 410.838 45.6 409.638 45.6ZM430.015 86.925C430.015 87.775 429.715 88.5 429.115 89.1C428.515 89.7 427.79 90 426.94 90C426.09 90 425.39 89.7 424.84 89.1C424.29 88.5 424.015 87.775 424.015 86.925V37.5C424.015 36.65 424.29 35.95 424.84 35.4C425.44 34.8 426.165 34.5 427.015 34.5C427.915 34.5 428.64 34.8 429.19 35.4C429.74 35.95 430.015 36.65 430.015 37.5V86.925ZM448.253 86.925C448.253 87.775 447.953 88.5 447.353 89.1C446.753 89.7 446.028 90 445.178 90C444.328 90 443.628 89.7 443.078 89.1C442.528 88.5 442.253 87.775 442.253 86.925V37.5C442.253 36.65 442.528 35.95 443.078 35.4C443.678 34.8 444.403 34.5 445.253 34.5C446.153 34.5 446.878 34.8 447.428 35.4C447.978 35.95 448.253 36.65 448.253 37.5V86.925ZM479.165 50.25C482.565 50.25 485.24 50.95 487.19 52.35C489.14 53.75 490.515 55.625 491.315 57.975C492.165 60.325 492.59 62.95 492.59 65.85V86.925C492.59 87.775 492.29 88.5 491.69 89.1C491.14 89.7 490.44 90 489.59 90C488.74 90 488.015 89.7 487.415 89.1C486.865 88.5 486.59 87.775 486.59 86.925V66C486.59 64.1 486.29 62.4 485.69 60.9C485.14 59.35 484.19 58.125 482.84 57.225C481.54 56.275 479.74 55.8 477.44 55.8C475.34 55.8 473.415 56.275 471.665 57.225C469.915 58.125 468.515 59.35 467.465 60.9C466.415 62.4 465.89 64.1 465.89 66V86.925C465.89 87.775 465.59 88.5 464.99 89.1C464.44 89.7 463.74 90 462.89 90C462.04 90 461.315 89.7 460.715 89.1C460.165 88.5 459.89 87.775 459.89 86.925V54.225C459.89 53.375 460.165 52.675 460.715 52.125C461.315 51.525 462.04 51.225 462.89 51.225C463.79 51.225 464.515 51.525 465.065 52.125C465.615 52.675 465.89 53.375 465.89 54.225V59.55L464.39 61.2C464.64 59.9 465.215 58.6 466.115 57.3C467.015 55.95 468.14 54.75 469.49 53.7C470.84 52.65 472.34 51.825 473.99 51.225C475.64 50.575 477.365 50.25 479.165 50.25ZM521.614 90.75C517.614 90.75 514.114 89.9 511.114 88.2C508.114 86.5 505.764 84.175 504.064 81.225C502.414 78.225 501.589 74.775 501.589 70.875C501.589 66.525 502.439 62.825 504.139 59.775C505.889 56.675 508.139 54.325 510.889 52.725C513.689 51.075 516.639 50.25 519.739 50.25C522.039 50.25 524.264 50.675 526.414 51.525C528.564 52.375 530.464 53.625 532.114 55.275C533.764 56.875 535.089 58.825 536.089 61.125C537.089 63.375 537.614 65.9 537.664 68.7C537.664 69.5 537.364 70.175 536.764 70.725C536.164 71.275 535.464 71.55 534.664 71.55H505.039L503.689 66.375H532.564L531.364 67.425V65.775C531.164 63.725 530.464 61.975 529.264 60.525C528.114 59.025 526.689 57.875 524.989 57.075C523.339 56.275 521.589 55.875 519.739 55.875C518.239 55.875 516.739 56.15 515.239 56.7C513.789 57.2 512.464 58.05 511.264 59.25C510.114 60.4 509.164 61.9 508.414 63.75C507.714 65.6 507.364 67.825 507.364 70.425C507.364 73.325 507.939 75.875 509.089 78.075C510.289 80.275 511.939 82.025 514.039 83.325C516.139 84.575 518.589 85.2 521.389 85.2C523.139 85.2 524.664 84.975 525.964 84.525C527.264 84.075 528.389 83.525 529.339 82.875C530.289 82.175 531.089 81.475 531.739 80.775C532.389 80.325 533.014 80.1 533.614 80.1C534.364 80.1 534.964 80.35 535.414 80.85C535.914 81.35 536.164 81.95 536.164 82.65C536.164 83.5 535.764 84.25 534.964 84.9C533.564 86.45 531.664 87.825 529.264 89.025C526.864 90.175 524.314 90.75 521.614 90.75ZM544.507 83.85C544.057 83.2 543.857 82.525 543.907 81.825C543.957 81.075 544.382 80.425 545.182 79.875C545.682 79.525 546.257 79.375 546.907 79.425C547.607 79.475 548.232 79.8 548.782 80.4C550.182 82.05 551.782 83.375 553.582 84.375C555.382 85.325 557.582 85.8 560.182 85.8C561.382 85.75 562.582 85.55 563.782 85.2C564.982 84.85 565.982 84.25 566.782 83.4C567.632 82.5 568.057 81.325 568.057 79.875C568.057 78.475 567.632 77.375 566.782 76.575C565.932 75.725 564.832 75.05 563.482 74.55C562.132 74 560.657 73.525 559.057 73.125C557.407 72.675 555.782 72.175 554.182 71.625C552.582 71.025 551.132 70.3 549.832 69.45C548.582 68.55 547.557 67.45 546.757 66.15C546.007 64.8 545.632 63.175 545.632 61.275C545.632 59.025 546.232 57.075 547.432 55.425C548.682 53.775 550.332 52.5 552.382 51.6C554.482 50.7 556.757 50.25 559.207 50.25C560.607 50.25 562.057 50.425 563.557 50.775C565.107 51.075 566.607 51.625 568.057 52.425C569.507 53.175 570.782 54.225 571.882 55.575C572.332 56.075 572.582 56.7 572.632 57.45C572.682 58.2 572.357 58.875 571.657 59.475C571.107 59.875 570.482 60.05 569.782 60C569.132 59.95 568.582 59.7 568.132 59.25C567.082 58 565.757 57.05 564.157 56.4C562.607 55.7 560.882 55.35 558.982 55.35C557.782 55.35 556.607 55.525 555.457 55.875C554.307 56.225 553.332 56.825 552.532 57.675C551.782 58.475 551.407 59.6 551.407 61.05C551.457 62.4 551.907 63.5 552.757 64.35C553.607 65.2 554.757 65.9 556.207 66.45C557.657 66.95 559.257 67.45 561.007 67.95C562.607 68.35 564.132 68.825 565.582 69.375C567.082 69.875 568.432 70.55 569.632 71.4C570.832 72.25 571.782 73.35 572.482 74.7C573.182 76 573.532 77.65 573.532 79.65C573.532 81.95 572.882 83.95 571.582 85.65C570.282 87.3 568.557 88.575 566.407 89.475C564.307 90.325 562.032 90.75 559.582 90.75C556.832 90.75 554.107 90.225 551.407 89.175C548.757 88.125 546.457 86.35 544.507 83.85ZM580.029 83.85C579.579 83.2 579.379 82.525 579.429 81.825C579.479 81.075 579.904 80.425 580.704 79.875C581.204 79.525 581.779 79.375 582.429 79.425C583.129 79.475 583.754 79.8 584.304 80.4C585.704 82.05 587.304 83.375 589.104 84.375C590.904 85.325 593.104 85.8 595.704 85.8C596.904 85.75 598.104 85.55 599.304 85.2C600.504 84.85 601.504 84.25 602.304 83.4C603.154 82.5 603.579 81.325 603.579 79.875C603.579 78.475 603.154 77.375 602.304 76.575C601.454 75.725 600.354 75.05 599.004 74.55C597.654 74 596.179 73.525 594.579 73.125C592.929 72.675 591.304 72.175 589.704 71.625C588.104 71.025 586.654 70.3 585.354 69.45C584.104 68.55 583.079 67.45 582.279 66.15C581.529 64.8 581.154 63.175 581.154 61.275C581.154 59.025 581.754 57.075 582.954 55.425C584.204 53.775 585.854 52.5 587.904 51.6C590.004 50.7 592.279 50.25 594.729 50.25C596.129 50.25 597.579 50.425 599.079 50.775C600.629 51.075 602.129 51.625 603.579 52.425C605.029 53.175 606.304 54.225 607.404 55.575C607.854 56.075 608.104 56.7 608.154 57.45C608.204 58.2 607.879 58.875 607.179 59.475C606.629 59.875 606.004 60.05 605.304 60C604.654 59.95 604.104 59.7 603.654 59.25C602.604 58 601.279 57.05 599.679 56.4C598.129 55.7 596.404 55.35 594.504 55.35C593.304 55.35 592.129 55.525 590.979 55.875C589.829 56.225 588.854 56.825 588.054 57.675C587.304 58.475 586.929 59.6 586.929 61.05C586.979 62.4 587.429 63.5 588.279 64.35C589.129 65.2 590.279 65.9 591.729 66.45C593.179 66.95 594.779 67.45 596.529 67.95C598.129 68.35 599.654 68.825 601.104 69.375C602.604 69.875 603.954 70.55 605.154 71.4C606.354 72.25 607.304 73.35 608.004 74.7C608.704 76 609.054 77.65 609.054 79.65C609.054 81.95 608.404 83.95 607.104 85.65C605.804 87.3 604.079 88.575 601.929 89.475C599.829 90.325 597.554 90.75 595.104 90.75C592.354 90.75 589.629 90.225 586.929 89.175C584.279 88.125 581.979 86.35 580.029 83.85Z" fill="#00796B"/>
<path d="M54.8976 78.1826C43.9088 97.9759 4.15795 98.7856 2.61895 75.47C2.57747 74.8415 3.2722 74.4331 3.8398 74.7107C30.9266 87.9565 50.3089 50.5919 34.0423 29.3566C33.575 28.7466 34.0631 27.8558 34.8157 28.0198C54.2045 32.2446 65.3871 59.2885 54.8976 78.1826Z" fill="#100920"/>
<path d="M93.6174 71.3062C96.5145 77.0976 97.4765 78.099 99.8178 80.9958C100.109 81.3567 100.045 81.8879 99.6684 82.1602C88.4281 90.2918 73.0787 89.537 60.022 86.5652C59.4784 86.4415 59.2164 85.8264 59.4866 85.3405C68.3475 69.4047 68.0761 51.3882 58.2304 36.0742C57.8016 35.4073 58.4333 34.5575 59.1802 34.829C69.7483 38.6695 79.9573 46.3751 84.2994 52.1618C88.9584 58.3708 90.5114 65.0972 93.6174 71.3062Z" fill="#100920"/>
<path fill-rule="evenodd" clip-rule="evenodd" d="M9.02433 42.6116C9.08767 43.2677 9.9378 43.2473 10.4627 42.846C12.9607 40.936 18.2912 42.8244 16.2749 48.1787C14.9703 51.6431 11.6624 52.0237 8.67804 49.9661C3.29298 46.2534 4.84517 37.8139 10.0567 33.8631C14.7315 30.3193 20.2997 29.0778 25.1703 31.0651C33.4939 34.4613 36.6281 46.0013 32.1708 56.8404C27.7134 67.6795 17.3524 73.7132 9.02879 70.317C2.53404 67.667 -0.801221 60.0588 0.164185 51.6941C0.25011 50.9496 1.2147 50.7527 1.66338 51.3542C3.34045 53.6026 5.5223 55.7342 8.48964 56.9657C16.3903 60.2448 22.1177 54.5501 22.5018 47.6624C23.0207 38.3559 13.6793 37.322 11.0845 38.8728C9.58124 39.7712 8.89442 41.266 9.02433 42.6116Z" fill="#100920"/>
</svg>
