<svg width="158" height="32" viewBox="0 0 158 32" fill="none" xmlns="http://www.w3.org/2000/svg">
<path d="M17.892 25.668C17.964 25.668 18 25.74 18 25.884C18 26.028 17.964 26.1 17.892 26.1C17.268 26.1 16.776 26.088 16.416 26.064L14.256 26.028L11.484 26.064C11.076 26.088 10.524 26.1 9.828 26.1C9.756 26.1 9.72 26.028 9.72 25.884C9.72 25.74 9.756 25.668 9.828 25.668C10.692 25.668 11.124 25.416 11.124 24.912C11.124 24.648 11.028 24.408 10.836 24.192L6.732 18.936L6.048 19.548V23.184C6.048 24.144 6.18 24.804 6.444 25.164C6.732 25.5 7.248 25.668 7.992 25.668C8.088 25.668 8.136 25.74 8.136 25.884C8.136 26.028 8.088 26.1 7.992 26.1C7.368 26.1 6.864 26.088 6.48 26.064L4.392 26.028L2.232 26.064C1.872 26.088 1.38 26.1 0.756 26.1C0.708 26.1 0.684 26.028 0.684 25.884C0.684 25.74 0.708 25.668 0.756 25.668C1.5 25.668 2.004 25.5 2.268 25.164C2.556 24.804 2.7 24.144 2.7 23.184V4.896C2.7 4.056 2.616 3.456 2.448 3.096C2.304 2.736 2.04 2.556 1.656 2.556C1.32 2.556 0.864 2.688 0.288 2.952H0.252C0.18 2.952 0.108 2.892 0.036 2.772C-0.012 2.628 -0.012 2.544 0.036 2.52L5.292 0.0359995L5.472 0C5.592 0 5.712 0.0599999 5.832 0.18C5.976 0.276 6.048 0.372 6.048 0.468V18.72L9.396 15.48C10.02 14.904 10.332 14.316 10.332 13.716C10.332 13.404 10.212 13.152 9.972 12.96C9.732 12.744 9.396 12.636 8.964 12.636C8.916 12.636 8.892 12.564 8.892 12.42C8.892 12.276 8.916 12.204 8.964 12.204C9.66 12.204 10.2 12.216 10.584 12.24L13.428 12.276L16.056 12.24C16.392 12.216 16.86 12.204 17.46 12.204C17.532 12.204 17.568 12.276 17.568 12.42C17.568 12.564 17.532 12.636 17.46 12.636C16.428 12.636 15.24 12.9 13.896 13.428C12.576 13.932 11.388 14.676 10.332 15.66L9.036 16.848L13.968 23.184C14.664 24.048 15.324 24.684 15.948 25.092C16.596 25.476 17.244 25.668 17.892 25.668Z" fill="#1B2327"/>
<path d="M25.5828 26.568C24.0948 26.568 22.7868 26.232 21.6588 25.56C20.5548 24.864 19.7028 23.94 19.1028 22.788C18.5028 21.612 18.2028 20.34 18.2028 18.972C18.2028 17.412 18.5988 16.092 19.3908 15.012C20.1828 13.908 21.1908 13.092 22.4148 12.564C23.6388 12.012 24.8988 11.736 26.1948 11.736C27.6828 11.736 28.9788 12.084 30.0828 12.78C31.1868 13.476 32.0268 14.4 32.6028 15.552C33.2028 16.68 33.5028 17.892 33.5028 19.188C33.5028 20.628 33.1428 21.912 32.4228 23.04C31.7028 24.144 30.7308 25.008 29.5068 25.632C28.3068 26.256 26.9988 26.568 25.5828 26.568ZM26.6628 25.812C27.5988 25.812 28.3068 25.356 28.7868 24.444C29.2908 23.508 29.5428 22.176 29.5428 20.448C29.5428 18.768 29.3268 17.328 28.8948 16.128C28.4628 14.928 27.8988 14.028 27.2028 13.428C26.5068 12.804 25.7628 12.492 24.9708 12.492C23.0508 12.492 22.0908 14.208 22.0908 17.64C22.0908 19.248 22.2948 20.676 22.7028 21.924C23.1108 23.148 23.6628 24.108 24.3588 24.804C25.0548 25.476 25.8228 25.812 26.6628 25.812Z" fill="#1B2327"/>
<path d="M52.5561 25.668C52.6281 25.668 52.6641 25.74 52.6641 25.884C52.6641 26.028 52.6281 26.1 52.5561 26.1C51.9321 26.1 51.4401 26.088 51.0801 26.064L48.9201 26.028L46.1481 26.064C45.7401 26.088 45.1881 26.1 44.4921 26.1C44.4201 26.1 44.3841 26.028 44.3841 25.884C44.3841 25.74 44.4201 25.668 44.4921 25.668C45.3561 25.668 45.7881 25.416 45.7881 24.912C45.7881 24.648 45.6921 24.408 45.5001 24.192L41.3961 18.936L40.7121 19.548V23.184C40.7121 24.144 40.8441 24.804 41.1081 25.164C41.3961 25.5 41.9121 25.668 42.6561 25.668C42.7521 25.668 42.8001 25.74 42.8001 25.884C42.8001 26.028 42.7521 26.1 42.6561 26.1C42.0321 26.1 41.5281 26.088 41.1441 26.064L39.0561 26.028L36.8961 26.064C36.5361 26.088 36.0441 26.1 35.4201 26.1C35.3721 26.1 35.3481 26.028 35.3481 25.884C35.3481 25.74 35.3721 25.668 35.4201 25.668C36.1641 25.668 36.6681 25.5 36.9321 25.164C37.2201 24.804 37.3641 24.144 37.3641 23.184V4.896C37.3641 4.056 37.2801 3.456 37.1121 3.096C36.9681 2.736 36.7041 2.556 36.3201 2.556C35.9841 2.556 35.5281 2.688 34.9521 2.952H34.9161C34.8441 2.952 34.7721 2.892 34.7001 2.772C34.6521 2.628 34.6521 2.544 34.7001 2.52L39.9561 0.0359995L40.1361 0C40.2561 0 40.3761 0.0599999 40.4961 0.18C40.6401 0.276 40.7121 0.372 40.7121 0.468V18.72L44.0601 15.48C44.6841 14.904 44.9961 14.316 44.9961 13.716C44.9961 13.404 44.8761 13.152 44.6361 12.96C44.3961 12.744 44.0601 12.636 43.6281 12.636C43.5801 12.636 43.5561 12.564 43.5561 12.42C43.5561 12.276 43.5801 12.204 43.6281 12.204C44.3241 12.204 44.8641 12.216 45.2481 12.24L48.0921 12.276L50.7201 12.24C51.0561 12.216 51.5241 12.204 52.1241 12.204C52.1961 12.204 52.2321 12.276 52.2321 12.42C52.2321 12.564 52.1961 12.636 52.1241 12.636C51.0921 12.636 49.9041 12.9 48.5601 13.428C47.2401 13.932 46.0521 14.676 44.9961 15.66L43.7001 16.848L48.6321 23.184C49.3281 24.048 49.9881 24.684 50.6121 25.092C51.2601 25.476 51.9081 25.668 52.5561 25.668Z" fill="#1B2327"/>
<path d="M60.2468 26.568C58.7588 26.568 57.4508 26.232 56.3228 25.56C55.2188 24.864 54.3668 23.94 53.7668 22.788C53.1668 21.612 52.8668 20.34 52.8668 18.972C52.8668 17.412 53.2628 16.092 54.0548 15.012C54.8468 13.908 55.8548 13.092 57.0788 12.564C58.3028 12.012 59.5628 11.736 60.8588 11.736C62.3468 11.736 63.6428 12.084 64.7468 12.78C65.8508 13.476 66.6908 14.4 67.2668 15.552C67.8668 16.68 68.1668 17.892 68.1668 19.188C68.1668 20.628 67.8068 21.912 67.0868 23.04C66.3668 24.144 65.3948 25.008 64.1708 25.632C62.9708 26.256 61.6628 26.568 60.2468 26.568ZM61.3268 25.812C62.2628 25.812 62.9708 25.356 63.4508 24.444C63.9548 23.508 64.2068 22.176 64.2068 20.448C64.2068 18.768 63.9908 17.328 63.5588 16.128C63.1268 14.928 62.5628 14.028 61.8668 13.428C61.1708 12.804 60.4268 12.492 59.6348 12.492C57.7148 12.492 56.7548 14.208 56.7548 17.64C56.7548 19.248 56.9588 20.676 57.3668 21.924C57.7748 23.148 58.3268 24.108 59.0228 24.804C59.7188 25.476 60.4868 25.812 61.3268 25.812Z" fill="#1B2327"/>
<path d="M70.5881 26.1C70.5401 26.1 70.5161 26.028 70.5161 25.884C70.5161 25.74 70.5401 25.668 70.5881 25.668C71.3321 25.668 71.8361 25.5 72.1001 25.164C72.3881 24.804 72.5321 24.144 72.5321 23.184L72.5681 4.896C72.5681 4.056 72.4841 3.456 72.3161 3.096C72.1721 2.736 71.9081 2.556 71.5241 2.556C71.2121 2.556 70.7561 2.688 70.1561 2.952H70.1201C70.0481 2.952 69.9761 2.892 69.9041 2.772C69.8561 2.628 69.8561 2.544 69.9041 2.52L75.1961 0.0359995L75.3401 0C75.4601 0 75.5921 0.0599999 75.7361 0.18C75.8801 0.276 75.9521 0.372 75.9521 0.468V23.184C75.9521 24.144 76.0841 24.804 76.3481 25.164C76.6121 25.5 77.1161 25.668 77.8601 25.668C77.9561 25.668 78.0041 25.74 78.0041 25.884C78.0041 26.028 77.9561 26.1 77.8601 26.1C77.2601 26.1 76.7801 26.088 76.4201 26.064L74.2241 26.028L72.0641 26.064C71.7041 26.088 71.2121 26.1 70.5881 26.1Z" fill="#1B2327"/>
<path d="M87.4929 26.568C86.0049 26.568 84.6969 26.232 83.5689 25.56C82.4649 24.864 81.6129 23.94 81.0129 22.788C80.4129 21.612 80.1129 20.34 80.1129 18.972C80.1129 17.412 80.5089 16.092 81.3009 15.012C82.0929 13.908 83.1009 13.092 84.3249 12.564C85.5489 12.012 86.8089 11.736 88.1049 11.736C89.5929 11.736 90.8889 12.084 91.9929 12.78C93.0969 13.476 93.9369 14.4 94.5129 15.552C95.1129 16.68 95.4129 17.892 95.4129 19.188C95.4129 20.628 95.0529 21.912 94.3329 23.04C93.6129 24.144 92.6409 25.008 91.4169 25.632C90.2169 26.256 88.9089 26.568 87.4929 26.568ZM88.5729 25.812C89.5089 25.812 90.2169 25.356 90.6969 24.444C91.2009 23.508 91.4529 22.176 91.4529 20.448C91.4529 18.768 91.2369 17.328 90.8049 16.128C90.3729 14.928 89.8089 14.028 89.1129 13.428C88.4169 12.804 87.6729 12.492 86.8809 12.492C84.9609 12.492 84.0009 14.208 84.0009 17.64C84.0009 19.248 84.2049 20.676 84.6129 21.924C85.0209 23.148 85.5729 24.108 86.2689 24.804C86.9649 25.476 87.7329 25.812 88.5729 25.812Z" fill="#1B2327"/>
<path d="M102.278 31.494C102.046 31.494 101.862 31.4263 101.727 31.291C101.592 31.175 101.514 31.0107 101.495 30.798C101.495 30.6047 101.534 30.4017 101.611 30.189L103.612 25.636V26.448L97.928 13.166C97.8313 12.934 97.7927 12.7213 97.812 12.528C97.8507 12.3153 97.9377 12.151 98.073 12.035C98.2277 11.8997 98.4403 11.832 98.711 11.832C98.9623 11.832 99.146 11.89 99.262 12.006C99.3973 12.122 99.5133 12.3057 99.61 12.557L104.772 25.056H104.047L109.209 12.557C109.325 12.2863 109.451 12.1027 109.586 12.006C109.721 11.89 109.915 11.832 110.166 11.832C110.417 11.832 110.601 11.8997 110.717 12.035C110.852 12.151 110.93 12.3057 110.949 12.499C110.968 12.6923 110.93 12.905 110.833 13.137L103.264 30.798C103.148 31.0687 103.013 31.2523 102.858 31.349C102.723 31.4457 102.529 31.494 102.278 31.494Z" fill="#00796B"/>
<path d="M119.502 26.332C118.187 26.332 117.047 26.0323 116.08 25.433C115.113 24.8337 114.359 23.9927 113.818 22.91C113.296 21.8273 113.035 20.5417 113.035 19.053C113.035 17.951 113.18 16.9553 113.47 16.066C113.779 15.1767 114.214 14.413 114.775 13.775C115.355 13.1177 116.041 12.6247 116.834 12.296C117.646 11.948 118.535 11.774 119.502 11.774C120.836 11.774 121.986 12.0737 122.953 12.673C123.92 13.2723 124.664 14.123 125.186 15.225C125.727 16.3077 125.998 17.5837 125.998 19.053C125.998 20.1743 125.843 21.1797 125.534 22.069C125.244 22.9583 124.809 23.722 124.229 24.36C123.668 24.998 122.992 25.491 122.199 25.839C121.406 26.1677 120.507 26.332 119.502 26.332ZM119.502 24.853C120.469 24.853 121.3 24.6307 121.996 24.186C122.711 23.722 123.253 23.055 123.62 22.185C124.007 21.315 124.2 20.271 124.2 19.053C124.2 17.2163 123.775 15.7953 122.924 14.79C122.093 13.7847 120.952 13.282 119.502 13.282C118.555 13.282 117.723 13.514 117.008 13.978C116.312 14.4227 115.771 15.08 115.384 15.95C115.017 16.8007 114.833 17.835 114.833 19.053C114.833 20.909 115.258 22.3397 116.109 23.345C116.96 24.3503 118.091 24.853 119.502 24.853Z" fill="#00796B"/>
<path d="M135.883 31.552C134.839 31.552 133.824 31.4167 132.838 31.146C131.872 30.8947 130.992 30.479 130.199 29.899C130.045 29.8023 129.938 29.6767 129.88 29.522C129.842 29.3673 129.842 29.2127 129.88 29.058C129.919 28.9227 129.987 28.797 130.083 28.681C130.199 28.565 130.325 28.4973 130.46 28.478C130.615 28.4587 130.77 28.4877 130.924 28.565C131.775 29.1257 132.587 29.5123 133.36 29.725C134.153 29.957 134.975 30.073 135.825 30.073C137.237 30.073 138.31 29.6767 139.044 28.884C139.779 28.1107 140.146 26.999 140.146 25.549V21.953H140.436C140.146 23.1517 139.528 24.0893 138.58 24.766C137.633 25.4427 136.512 25.781 135.216 25.781C133.921 25.781 132.8 25.491 131.852 24.911C130.905 24.3117 130.17 23.49 129.648 22.446C129.146 21.3827 128.894 20.155 128.894 18.763C128.894 17.719 129.039 16.7717 129.329 15.921C129.619 15.0703 130.035 14.3357 130.576 13.717C131.137 13.0983 131.804 12.6247 132.577 12.296C133.351 11.948 134.23 11.774 135.216 11.774C136.512 11.774 137.633 12.122 138.58 12.818C139.528 13.4947 140.137 14.413 140.407 15.573L140.117 15.747V12.76C140.117 12.4507 140.195 12.2187 140.349 12.064C140.504 11.9093 140.717 11.832 140.987 11.832C141.277 11.832 141.49 11.9093 141.625 12.064C141.78 12.2187 141.857 12.4507 141.857 12.76V25.288C141.857 27.3567 141.355 28.913 140.349 29.957C139.344 31.0203 137.855 31.552 135.883 31.552ZM135.419 24.273C136.386 24.273 137.217 24.0507 137.913 23.606C138.629 23.142 139.18 22.504 139.566 21.692C139.953 20.8607 140.146 19.8843 140.146 18.763C140.146 17.081 139.721 15.747 138.87 14.761C138.02 13.775 136.869 13.282 135.419 13.282C134.453 13.282 133.612 13.5043 132.896 13.949C132.181 14.3937 131.63 15.0317 131.243 15.863C130.876 16.675 130.692 17.6417 130.692 18.763C130.692 20.445 131.118 21.7887 131.968 22.794C132.819 23.78 133.969 24.273 135.419 24.273Z" fill="#00796B"/>
<path d="M150.88 26.332C149.933 26.332 149.082 26.1483 148.328 25.781C147.593 25.4137 147.004 24.911 146.559 24.273C146.134 23.635 145.921 22.9197 145.921 22.127C145.921 21.083 146.182 20.2613 146.704 19.662C147.226 19.0627 148.106 18.647 149.343 18.415C150.58 18.1637 152.282 18.038 154.447 18.038H155.694V19.343H154.476C152.736 19.343 151.373 19.4203 150.387 19.575C149.42 19.7103 148.744 19.9713 148.357 20.358C147.97 20.7447 147.777 21.286 147.777 21.982C147.777 22.852 148.077 23.5577 148.676 24.099C149.275 24.6403 150.087 24.911 151.112 24.911C151.943 24.911 152.668 24.7177 153.287 24.331C153.925 23.925 154.428 23.374 154.795 22.678C155.162 21.982 155.346 21.1893 155.346 20.3V16.994C155.346 15.6987 155.085 14.761 154.563 14.181C154.041 13.5817 153.21 13.282 152.069 13.282C151.334 13.282 150.619 13.3787 149.923 13.572C149.246 13.7653 148.521 14.0747 147.748 14.5C147.535 14.616 147.342 14.6547 147.168 14.616C147.013 14.5773 146.888 14.5 146.791 14.384C146.714 14.268 146.656 14.1327 146.617 13.978C146.598 13.804 146.627 13.6397 146.704 13.485C146.781 13.3303 146.917 13.2047 147.11 13.108C147.922 12.6633 148.744 12.3347 149.575 12.122C150.426 11.89 151.247 11.774 152.04 11.774C153.181 11.774 154.118 11.9673 154.853 12.354C155.607 12.7407 156.158 13.3207 156.506 14.094C156.873 14.8673 157.057 15.863 157.057 17.081V25.375C157.057 25.665 156.989 25.8873 156.854 26.042C156.719 26.1967 156.516 26.274 156.245 26.274C155.974 26.274 155.762 26.1967 155.607 26.042C155.452 25.8873 155.375 25.665 155.375 25.375V22.707H155.665C155.491 23.461 155.182 24.1087 154.737 24.65C154.292 25.1913 153.741 25.607 153.084 25.897C152.427 26.187 151.692 26.332 150.88 26.332Z" fill="#00796B"/>
</svg>
