<svg width="195" height="33" viewBox="0 0 195 33" fill="none" xmlns="http://www.w3.org/2000/svg">
<path d="M38.7265 26.3214C38.6799 26.3214 38.6566 26.2515 38.6566 26.1118C38.6566 25.9721 38.6799 25.9023 38.7265 25.9023C39.4483 25.9023 39.9372 25.7393 40.1934 25.4133C40.4728 25.064 40.6125 24.4237 40.6125 23.4924V5.74994C40.6125 4.95828 40.5426 4.38782 40.4029 4.03856C40.2632 3.66602 39.9954 3.47975 39.5996 3.47975C39.2736 3.47975 38.8312 3.60781 38.2724 3.86393C38.2026 3.88722 38.1327 3.82901 38.0629 3.6893C37.993 3.5496 37.9814 3.4681 38.0279 3.44482L43.1271 1.03493C43.197 1.01164 43.2552 1 43.3018 1C43.4182 1 43.5346 1.05821 43.651 1.17463C43.7907 1.26777 43.8606 1.3609 43.8606 1.45404V23.4924C43.8606 24.4237 43.9886 25.064 44.2448 25.4133C44.5242 25.7393 45.0248 25.9023 45.7466 25.9023C45.8397 25.9023 45.8863 25.9721 45.8863 26.1118C45.8863 26.2515 45.8397 26.3214 45.7466 26.3214C45.2809 26.3214 44.7454 26.3097 44.14 26.2864C43.5579 26.2632 42.9292 26.2515 42.254 26.2515C41.5788 26.2515 40.9384 26.2632 40.3331 26.2864C39.7277 26.3097 39.1921 26.3214 38.7265 26.3214ZM47.5278 26.3214C47.458 26.3214 47.423 26.2515 47.423 26.1118C47.423 25.9721 47.458 25.9023 47.5278 25.9023C48.1565 25.9023 48.5523 25.7625 48.7153 25.4831C48.8783 25.2037 48.8084 24.8661 48.5057 24.4703L44.2797 19.0568L46.6547 17.2406L51.5443 23.4924C52.2195 24.3539 52.8599 24.9709 53.4652 25.3434C54.0939 25.716 54.7226 25.9023 55.3512 25.9023C55.4211 25.9023 55.456 25.9721 55.456 26.1118C55.456 26.2515 55.4211 26.3214 55.3512 26.3214C54.8856 26.3214 54.35 26.3097 53.7446 26.2864C53.1393 26.2632 52.499 26.2515 51.8237 26.2515C50.8924 26.2515 50.0774 26.2632 49.3789 26.2864C48.7037 26.3097 48.0866 26.3214 47.5278 26.3214ZM42.6032 21.1174L42.3937 20.5586L47.1087 16.0182C47.7607 15.4128 48.0517 14.8074 47.9819 14.202C47.9353 13.5734 47.5045 13.259 46.6896 13.259C46.643 13.259 46.6197 13.1892 46.6197 13.0495C46.6197 12.9098 46.643 12.8399 46.6896 12.8399C47.295 12.8399 47.9004 12.8516 48.5057 12.8748C49.1344 12.8981 49.9726 12.9098 51.0204 12.9098C51.9751 12.9098 52.7318 12.8981 53.2906 12.8748C53.8727 12.8516 54.4199 12.8399 54.9321 12.8399C55.002 12.8399 55.0369 12.9098 55.0369 13.0495C55.0369 13.1892 55.002 13.259 54.9321 13.259C54.35 13.259 53.6515 13.3638 52.8366 13.5734C52.0449 13.7596 51.23 14.074 50.3918 14.5164C49.5535 14.9355 48.7619 15.4943 48.0168 16.1928L42.6032 21.1174Z" fill="#110A21"/>
<path d="M62.8126 26.7754C61.3457 26.7754 60.0767 26.4378 59.0057 25.7625C57.9346 25.0873 57.108 24.1909 56.5259 23.0732C55.9438 21.9323 55.6528 20.7099 55.6528 19.406C55.6528 18.1952 55.8856 17.1475 56.3513 16.2627C56.817 15.3779 57.434 14.6561 58.2024 14.0973C58.9707 13.5152 59.809 13.0844 60.717 12.805C61.6251 12.5256 62.5215 12.3859 63.4063 12.3859C64.8965 12.3859 66.1655 12.7351 67.2133 13.4337C68.2843 14.1322 69.0993 15.0286 69.6581 16.123C70.2169 17.2173 70.4963 18.3815 70.4963 19.6156C70.4963 21.0359 70.1354 22.2932 69.4136 23.3876C68.7151 24.4586 67.7837 25.2969 66.6195 25.9023C65.4553 26.4844 64.1863 26.7754 62.8126 26.7754ZM63.8604 26.042C64.7917 26.042 65.4902 25.5879 65.9559 24.6798C66.4216 23.7718 66.6544 22.4911 66.6544 20.838C66.6544 19.1382 66.4333 17.7179 65.9909 16.577C65.5717 15.4361 65.0246 14.5746 64.3493 13.9925C63.6741 13.4104 62.9639 13.1193 62.2188 13.1193C61.3108 13.1193 60.6122 13.5268 60.1233 14.3417C59.6576 15.1567 59.4248 16.414 59.4248 18.1137C59.4248 19.6971 59.6227 21.0941 60.0185 22.3049C60.4143 23.4924 60.9499 24.4121 61.6251 25.064C62.3003 25.716 63.0454 26.042 63.8604 26.042Z" fill="#110A21"/>
<path d="M72.3564 26.3214C72.3098 26.3214 72.2865 26.2515 72.2865 26.1118C72.2865 25.9721 72.3098 25.9023 72.3564 25.9023C73.0782 25.9023 73.5672 25.7393 73.8233 25.4133C74.1027 25.064 74.2424 24.4237 74.2424 23.4924V5.74994C74.2424 4.95828 74.1725 4.38782 74.0328 4.03856C73.8931 3.66602 73.6254 3.47975 73.2295 3.47975C72.9036 3.47975 72.4612 3.60781 71.9024 3.86393C71.8325 3.88722 71.7626 3.82901 71.6928 3.6893C71.6229 3.5496 71.6113 3.4681 71.6579 3.44482L76.7571 1.03493C76.8269 1.01164 76.8851 1 76.9317 1C77.0481 1 77.1645 1.05821 77.281 1.17463C77.4207 1.26777 77.4905 1.3609 77.4905 1.45404V23.4924C77.4905 24.4237 77.6186 25.064 77.8747 25.4133C78.1541 25.7393 78.6547 25.9023 79.3765 25.9023C79.4697 25.9023 79.5162 25.9721 79.5162 26.1118C79.5162 26.2515 79.4697 26.3214 79.3765 26.3214C78.9108 26.3214 78.3753 26.3097 77.7699 26.2864C77.1878 26.2632 76.5592 26.2515 75.8839 26.2515C75.2087 26.2515 74.5684 26.2632 73.963 26.2864C73.3576 26.3097 72.8221 26.3214 72.3564 26.3214ZM81.1577 26.3214C81.0879 26.3214 81.053 26.2515 81.053 26.1118C81.053 25.9721 81.0879 25.9023 81.1577 25.9023C81.7864 25.9023 82.1822 25.7625 82.3452 25.4831C82.5082 25.2037 82.4384 24.8661 82.1357 24.4703L77.9096 19.0568L80.2846 17.2406L85.1742 23.4924C85.8495 24.3539 86.4898 24.9709 87.0952 25.3434C87.7238 25.716 88.3525 25.9023 88.9812 25.9023C89.051 25.9023 89.086 25.9721 89.086 26.1118C89.086 26.2515 89.051 26.3214 88.9812 26.3214C88.5155 26.3214 87.98 26.3097 87.3746 26.2864C86.7692 26.2632 86.1289 26.2515 85.4536 26.2515C84.5223 26.2515 83.7073 26.2632 83.0088 26.2864C82.3336 26.3097 81.7166 26.3214 81.1577 26.3214ZM76.2332 21.1174L76.0236 20.5586L80.7386 16.0182C81.3906 15.4128 81.6816 14.8074 81.6118 14.202C81.5652 13.5734 81.1345 13.259 80.3195 13.259C80.273 13.259 80.2497 13.1892 80.2497 13.0495C80.2497 12.9098 80.273 12.8399 80.3195 12.8399C80.9249 12.8399 81.5303 12.8516 82.1357 12.8748C82.7643 12.8981 83.6026 12.9098 84.6504 12.9098C85.605 12.9098 86.3617 12.8981 86.9205 12.8748C87.5026 12.8516 88.0498 12.8399 88.5621 12.8399C88.6319 12.8399 88.6668 12.9098 88.6668 13.0495C88.6668 13.1892 88.6319 13.259 88.5621 13.259C87.98 13.259 87.2814 13.3638 86.4665 13.5734C85.6749 13.7596 84.8599 14.074 84.0217 14.5164C83.1835 14.9355 82.3918 15.4943 81.6467 16.1928L76.2332 21.1174Z" fill="#110A21"/>
<path d="M96.4425 26.7754C94.9756 26.7754 93.7066 26.4378 92.6356 25.7625C91.5645 25.0873 90.7379 24.1909 90.1558 23.0732C89.5737 21.9323 89.2827 20.7099 89.2827 19.406C89.2827 18.1952 89.5155 17.1475 89.9812 16.2627C90.4469 15.3779 91.0639 14.6561 91.8323 14.0973C92.6007 13.5152 93.4389 13.0844 94.347 12.805C95.255 12.5256 96.1515 12.3859 97.0363 12.3859C98.5264 12.3859 99.7954 12.7351 100.843 13.4337C101.914 14.1322 102.729 15.0286 103.288 16.123C103.847 17.2173 104.126 18.3815 104.126 19.6156C104.126 21.0359 103.765 22.2932 103.044 23.3876C102.345 24.4586 101.414 25.2969 100.249 25.9023C99.0853 26.4844 97.8163 26.7754 96.4425 26.7754ZM97.4903 26.042C98.4217 26.042 99.1202 25.5879 99.5859 24.6798C100.052 23.7718 100.284 22.4911 100.284 20.838C100.284 19.1382 100.063 17.7179 99.6208 16.577C99.2017 15.4361 98.6545 14.5746 97.9793 13.9925C97.304 13.4104 96.5939 13.1193 95.8488 13.1193C94.9407 13.1193 94.2422 13.5268 93.7532 14.3417C93.2875 15.1567 93.0547 16.414 93.0547 18.1137C93.0547 19.6971 93.2526 21.0941 93.6484 22.3049C94.0443 23.4924 94.5798 24.4121 95.255 25.064C95.9303 25.716 96.6754 26.042 97.4903 26.042Z" fill="#110A21"/>
<path d="M106.475 26.3214C106.429 26.3214 106.405 26.2515 106.405 26.1118C106.405 25.9721 106.429 25.9023 106.475 25.9023C107.197 25.9023 107.686 25.7393 107.942 25.4133C108.222 25.064 108.361 24.4237 108.361 23.4924L108.396 5.74994C108.396 4.95828 108.326 4.38782 108.187 4.03856C108.047 3.66602 107.779 3.47975 107.383 3.47975C107.081 3.47975 106.638 3.60781 106.056 3.86393C105.986 3.88722 105.916 3.82901 105.847 3.6893C105.777 3.5496 105.765 3.4681 105.812 3.44482L110.946 1.03493C110.992 1.01164 111.039 1 111.086 1C111.202 1 111.33 1.05821 111.47 1.17463C111.609 1.26777 111.679 1.3609 111.679 1.45404V23.4924C111.679 24.4237 111.807 25.064 112.063 25.4133C112.32 25.7393 112.809 25.9023 113.53 25.9023C113.623 25.9023 113.67 25.9721 113.67 26.1118C113.67 26.2515 113.623 26.3214 113.53 26.3214C113.088 26.3214 112.552 26.3097 111.924 26.2864C111.318 26.2632 110.678 26.2515 110.003 26.2515C109.328 26.2515 108.687 26.2632 108.082 26.2864C107.477 26.3097 106.941 26.3214 106.475 26.3214Z" fill="#110A21"/>
<path d="M122.876 26.7754C121.409 26.7754 120.14 26.4378 119.069 25.7625C117.998 25.0873 117.171 24.1909 116.589 23.0732C116.007 21.9323 115.716 20.7099 115.716 19.406C115.716 18.1952 115.949 17.1475 116.414 16.2627C116.88 15.3779 117.497 14.6561 118.266 14.0973C119.034 13.5152 119.872 13.0844 120.78 12.805C121.688 12.5256 122.585 12.3859 123.47 12.3859C124.96 12.3859 126.229 12.7351 127.276 13.4337C128.348 14.1322 129.162 15.0286 129.721 16.123C130.28 17.2173 130.56 18.3815 130.56 19.6156C130.56 21.0359 130.199 22.2932 129.477 23.3876C128.778 24.4586 127.847 25.2969 126.683 25.9023C125.519 26.4844 124.25 26.7754 122.876 26.7754ZM123.924 26.042C124.855 26.042 125.553 25.5879 126.019 24.6798C126.485 23.7718 126.718 22.4911 126.718 20.838C126.718 19.1382 126.496 17.7179 126.054 16.577C125.635 15.4361 125.088 14.5746 124.413 13.9925C123.737 13.4104 123.027 13.1193 122.282 13.1193C121.374 13.1193 120.675 13.5268 120.186 14.3417C119.721 15.1567 119.488 16.414 119.488 18.1137C119.488 19.6971 119.686 21.0941 120.082 22.3049C120.478 23.4924 121.013 24.4121 121.688 25.064C122.364 25.716 123.109 26.042 123.924 26.042Z" fill="#110A21"/>
<path d="M144.408 12.4965C144.645 12.4965 144.836 12.5783 144.981 12.7421C145.145 12.9058 145.227 13.0968 145.227 13.3151V25.3482C145.227 26.8216 144.936 28.0586 144.354 29.0591C143.772 30.0777 142.989 30.8417 142.007 31.3511C141.025 31.8786 139.906 32.1424 138.651 32.1424C137.869 32.1424 137.141 32.0514 136.468 31.8695C135.813 31.7058 135.277 31.4875 134.858 31.2146C134.64 31.0873 134.476 30.9327 134.367 30.7508C134.258 30.5689 134.249 30.3779 134.34 30.1778C134.431 29.9231 134.567 29.7503 134.749 29.6593C134.949 29.5866 135.149 29.5957 135.349 29.6866C135.659 29.8503 136.104 30.0504 136.686 30.2869C137.268 30.5234 137.932 30.6416 138.678 30.6416C139.679 30.6416 140.543 30.4324 141.27 30.0141C142.016 29.5957 142.589 28.9863 142.989 28.1859C143.39 27.4037 143.59 26.4669 143.59 25.3754V23.4109L143.781 24.0657C143.508 24.6296 143.117 25.1299 142.607 25.5665C142.116 26.003 141.543 26.3486 140.888 26.6033C140.252 26.8398 139.57 26.958 138.842 26.958C137.75 26.958 136.841 26.7397 136.113 26.3032C135.404 25.8484 134.876 25.2299 134.531 24.4477C134.185 23.6655 134.012 22.7469 134.012 21.6918V13.3151C134.012 13.0968 134.085 12.9058 134.231 12.7421C134.376 12.5783 134.576 12.4965 134.831 12.4965C135.067 12.4965 135.258 12.5783 135.404 12.7421C135.568 12.9058 135.649 13.0968 135.649 13.3151V21.4463C135.649 22.7196 135.922 23.7019 136.468 24.3932C137.032 25.0844 137.941 25.43 139.197 25.43C139.979 25.43 140.697 25.2481 141.352 24.8843C142.007 24.5023 142.544 24.0112 142.962 23.4109C143.38 22.7924 143.59 22.1375 143.59 21.4463V13.3151C143.59 13.0968 143.662 12.9058 143.808 12.7421C143.972 12.5783 144.172 12.4965 144.408 12.4965Z" fill="#00796B"/>
<path d="M162.375 19.7C162.375 21.0825 162.075 22.3285 161.475 23.4381C160.875 24.5296 160.056 25.3936 159.019 26.0303C157.982 26.6488 156.8 26.958 155.472 26.958C154.18 26.958 153.007 26.6488 151.952 26.0303C150.915 25.3936 150.088 24.5296 149.469 23.4381C148.869 22.3285 148.569 21.0825 148.569 19.7C148.569 18.2993 148.869 17.0532 149.469 15.9618C150.088 14.8704 150.915 14.0063 151.952 13.3696C153.007 12.733 154.18 12.4146 155.472 12.4146C156.8 12.4146 157.982 12.733 159.019 13.3696C160.056 14.0063 160.875 14.8704 161.475 15.9618C162.075 17.0532 162.375 18.2993 162.375 19.7ZM160.738 19.7C160.738 18.5903 160.511 17.608 160.056 16.7531C159.601 15.8799 158.974 15.1978 158.173 14.7066C157.391 14.1973 156.491 13.9426 155.472 13.9426C154.49 13.9426 153.598 14.1973 152.798 14.7066C151.998 15.1978 151.361 15.8799 150.888 16.7531C150.433 17.608 150.206 18.5903 150.206 19.7C150.206 20.8096 150.433 21.7919 150.888 22.6469C151.361 23.5018 151.998 24.184 152.798 24.6933C153.598 25.1844 154.49 25.43 155.472 25.43C156.491 25.43 157.391 25.1844 158.173 24.6933C158.974 24.184 159.601 23.5018 160.056 22.6469C160.511 21.7919 160.738 20.8096 160.738 19.7Z" fill="#00796B"/>
<path d="M171.667 12.4146C172.485 12.4146 173.24 12.5601 173.931 12.8512C174.623 13.1241 175.223 13.4879 175.732 13.9426C176.26 14.3792 176.669 14.8522 176.96 15.3615C177.251 15.8527 177.397 16.3256 177.397 16.7804L176.933 16.1255V13.5879C176.933 13.3514 177.006 13.1513 177.151 12.9876C177.315 12.8239 177.515 12.7421 177.751 12.7421C178.006 12.7421 178.206 12.8239 178.352 12.9876C178.497 13.1513 178.57 13.3514 178.57 13.5879V25.4027C178.57 26.858 178.27 28.0859 177.67 29.0863C177.069 30.0868 176.251 30.8417 175.214 31.3511C174.195 31.8786 173.031 32.1424 171.721 32.1424C171.085 32.1424 170.411 32.0605 169.702 31.8968C169.011 31.7331 168.411 31.5239 167.901 31.2692C167.41 31.0145 167.137 30.7508 167.083 30.4779C166.937 30.3142 166.864 30.1505 166.864 29.9868C166.883 29.8412 166.964 29.7139 167.11 29.6048C167.292 29.4774 167.483 29.4592 167.683 29.5502C167.883 29.6593 168.183 29.7958 168.583 29.9595C168.765 30.0141 169.011 30.0959 169.32 30.2051C169.629 30.3142 169.993 30.4052 170.412 30.4779C170.848 30.5689 171.303 30.6144 171.776 30.6144C173.413 30.6144 174.677 30.1414 175.569 29.1955C176.478 28.2678 176.933 27.0399 176.933 25.5119V22.8924L177.233 22.9743C177.069 23.6291 176.796 24.2022 176.414 24.6933C176.051 25.1844 175.614 25.6028 175.105 25.9485C174.595 26.2759 174.041 26.5215 173.44 26.6852C172.858 26.8671 172.276 26.958 171.694 26.958C170.439 26.958 169.311 26.6397 168.31 26.003C167.31 25.3664 166.51 24.5023 165.909 23.4109C165.327 22.3194 165.036 21.0734 165.036 19.6727C165.036 18.2902 165.327 17.0532 165.909 15.9618C166.51 14.8522 167.301 13.9881 168.283 13.3696C169.284 12.733 170.412 12.4146 171.667 12.4146ZM171.858 13.9426C170.857 13.9426 169.957 14.1973 169.156 14.7066C168.374 15.1978 167.756 15.8799 167.301 16.7531C166.864 17.608 166.646 18.5812 166.646 19.6727C166.646 20.7641 166.864 21.7464 167.301 22.6196C167.756 23.4927 168.374 24.184 169.156 24.6933C169.957 25.1844 170.857 25.43 171.858 25.43C172.858 25.43 173.749 25.1844 174.532 24.6933C175.314 24.2022 175.932 23.5291 176.387 22.6741C176.842 21.801 177.069 20.8005 177.069 19.6727C177.069 18.5449 176.842 17.5535 176.387 16.6985C175.932 15.8254 175.314 15.1523 174.532 14.6794C173.749 14.1882 172.858 13.9426 171.858 13.9426Z" fill="#00796B"/>
<path d="M194.181 12.7421C194.418 12.7421 194.609 12.8239 194.754 12.9876C194.918 13.1513 195 13.3514 195 13.5879V25.8666C195 26.0849 194.918 26.2759 194.754 26.4396C194.591 26.6033 194.4 26.6852 194.181 26.6852C193.945 26.6852 193.745 26.6033 193.581 26.4396C193.436 26.2759 193.363 26.0849 193.363 25.8666V22.6196L193.827 22.4013C193.827 22.9106 193.681 23.4291 193.39 23.9566C193.117 24.4841 192.735 24.9753 192.244 25.43C191.753 25.8848 191.171 26.2577 190.498 26.5487C189.843 26.8216 189.134 26.958 188.37 26.958C187.133 26.958 186.023 26.6397 185.041 26.003C184.077 25.3664 183.312 24.4932 182.749 23.3836C182.203 22.2739 181.93 21.0279 181.93 19.6454C181.93 18.2265 182.212 16.9805 182.776 15.9072C183.34 14.8158 184.104 13.9608 185.068 13.3423C186.032 12.7239 187.123 12.4146 188.342 12.4146C189.124 12.4146 189.852 12.5511 190.525 12.8239C191.216 13.0968 191.817 13.4697 192.326 13.9426C192.835 14.4156 193.226 14.9613 193.499 15.5798C193.79 16.1801 193.936 16.8077 193.936 17.4625L193.363 17.0532V13.5879C193.363 13.3514 193.436 13.1513 193.581 12.9876C193.745 12.8239 193.945 12.7421 194.181 12.7421ZM188.506 25.43C189.47 25.43 190.325 25.1844 191.071 24.6933C191.817 24.184 192.399 23.4927 192.817 22.6196C193.254 21.7282 193.472 20.7368 193.472 19.6454C193.472 18.5722 193.254 17.608 192.817 16.7531C192.399 15.8981 191.817 15.216 191.071 14.7066C190.325 14.1973 189.47 13.9426 188.506 13.9426C187.56 13.9426 186.705 14.1882 185.941 14.6794C185.195 15.1705 184.604 15.8436 184.167 16.6985C183.749 17.5535 183.54 18.5358 183.54 19.6454C183.54 20.7368 183.749 21.7282 184.167 22.6196C184.604 23.4927 185.195 24.184 185.941 24.6933C186.687 25.1844 187.542 25.43 188.506 25.43Z" fill="#00796B"/>
<circle cx="15.5" cy="14.5" r="13.5" fill="#00C7B0"/>
<circle cx="25" cy="5" r="4" fill="#110A21"/>
</svg>
